<?xml version="1.0" standalone="no"?>
<!DOCTYPE svg PUBLIC "-//W3C//DTD SVG 20010904//EN"
 "http://www.w3.org/TR/2001/REC-SVG-20010904/DTD/svg10.dtd">
<svg version="1.0" xmlns="http://www.w3.org/2000/svg"
 width="340.000000pt" height="338.000000pt" viewBox="0 0 340.000000 338.000000"
 preserveAspectRatio="xMidYMid meet">

<g transform="translate(0.000000,338.000000) scale(0.100000,-0.100000)"
fill="#000000" stroke="none">
<path d="M557 2807 c-8 -12 -38 -49 -66 -82 -62 -72 -61 -71 -85 -118 -11 -20
-23 -37 -28 -37 -4 0 -8 -7 -8 -15 0 -7 -6 -18 -14 -22 -7 -4 -19 -24 -25 -45
-7 -20 -18 -39 -26 -42 -8 -3 -15 -16 -15 -29 0 -14 -7 -30 -15 -37 -8 -7 -17
-27 -21 -46 -3 -19 -12 -38 -19 -42 -12 -6 -24 -49 -27 -92 -1 -8 -8 -20 -15
-25 -8 -6 -18 -42 -23 -83 -5 -39 -17 -86 -25 -102 -13 -25 -16 -73 -16 -275
0 -240 5 -330 22 -340 4 -3 11 -27 14 -53 8 -52 48 -183 69 -222 8 -14 17 -40
21 -58 3 -17 11 -32 15 -32 5 0 13 -15 18 -33 6 -17 21 -52 36 -77 14 -25 33
-58 42 -75 9 -16 23 -34 30 -38 8 -4 14 -12 14 -17 0 -5 18 -28 40 -52 22 -24
40 -46 40 -50 0 -13 147 -158 161 -158 8 0 32 -18 53 -40 22 -22 45 -40 53
-40 7 0 13 -5 13 -11 0 -5 15 -16 34 -24 19 -8 38 -20 41 -25 4 -6 17 -16 28
-21 12 -6 40 -21 62 -34 53 -32 82 -45 104 -45 10 0 26 -9 36 -20 10 -11 29
-20 43 -20 14 0 33 -7 42 -15 9 -8 39 -18 66 -21 27 -4 63 -14 79 -24 17 -10
62 -20 106 -23 41 -4 93 -14 114 -23 32 -13 69 -15 209 -12 116 2 178 8 194
16 13 8 60 17 104 22 44 4 84 13 88 20 4 7 28 15 53 17 27 3 53 13 63 24 9 11
30 19 45 19 15 0 31 4 34 10 3 5 39 26 79 45 41 19 79 42 86 50 7 8 18 15 25
15 7 0 23 10 37 23 14 12 35 29 47 37 13 8 34 25 47 37 13 12 41 34 61 50 53
39 213 212 213 229 0 5 9 17 20 27 11 9 20 25 20 34 -1 17 -1 17 -14 1 -7 -10
-20 -18 -27 -18 -8 0 -22 -9 -32 -20 -9 -11 -26 -20 -37 -20 -10 0 -24 -9 -30
-20 -6 -11 -19 -20 -30 -20 -10 0 -25 -6 -33 -14 -8 -8 -29 -22 -48 -31 -57
-26 -82 -43 -91 -59 -5 -9 -14 -16 -20 -16 -6 0 -21 -10 -34 -23 -46 -43 -64
-57 -77 -57 -8 0 -22 -9 -32 -20 -10 -11 -28 -20 -41 -20 -13 0 -28 -9 -34
-20 -6 -11 -21 -20 -34 -20 -13 0 -35 -9 -49 -20 -14 -11 -33 -20 -42 -20 -10
0 -32 -8 -49 -19 -17 -10 -50 -21 -74 -25 -24 -4 -53 -13 -65 -20 -12 -8 -59
-16 -103 -19 -45 -3 -92 -10 -104 -17 -15 -8 -65 -12 -139 -11 -121 1 -140 3
-206 20 -22 6 -60 11 -85 11 -26 0 -61 9 -83 20 -20 11 -52 20 -69 20 -18 0
-46 9 -63 20 -16 11 -39 20 -50 20 -11 0 -33 9 -50 20 -16 11 -37 20 -45 20
-9 0 -23 9 -33 20 -9 11 -26 20 -36 20 -11 0 -24 7 -29 16 -9 16 -34 33 -90
59 -18 9 -35 22 -39 30 -3 8 -9 15 -14 15 -14 0 -189 163 -189 176 0 3 -18 24
-40 45 -22 22 -40 41 -40 44 0 10 -55 90 -67 98 -7 4 -13 13 -13 20 0 7 -9 23
-20 37 -11 14 -20 31 -20 38 0 8 -9 25 -19 38 -11 14 -22 42 -26 64 -4 21 -13
44 -21 51 -8 6 -14 22 -14 36 0 13 -9 41 -20 63 -11 22 -20 59 -20 82 0 24 -8
57 -17 73 -15 26 -18 60 -18 250 0 191 2 224 18 252 9 18 17 50 17 73 0 22 9
57 20 77 11 21 20 49 20 63 0 14 9 39 20 55 11 17 20 37 20 46 0 9 9 28 20 42
11 14 20 34 20 45 0 10 8 27 19 36 11 10 21 37 25 66 4 27 13 65 21 84 8 19
15 49 15 66 0 17 9 50 19 73 11 23 22 59 26 79 4 20 13 39 21 42 16 6 19 32 5
40 -5 3 -16 -4 -24 -17z"/>
<path d="M1167 2763 c-12 -12 -7 -22 8 -17 8 4 15 10 15 15 0 11 -14 12 -23 2z"/>
<path d="M1115 2733 c-11 -3 -24 -10 -30 -17 -5 -7 -25 -20 -42 -30 -18 -9
-33 -21 -33 -26 0 -6 -7 -10 -15 -10 -8 0 -23 -7 -32 -16 -92 -84 -118 -104
-129 -104 -8 0 -14 -4 -14 -9 0 -8 -81 -111 -117 -149 -7 -7 -13 -18 -13 -23
0 -6 -12 -26 -26 -45 -15 -19 -23 -34 -18 -34 4 0 -2 -9 -13 -20 -12 -10 -24
-32 -28 -49 -3 -16 -13 -32 -21 -35 -8 -3 -14 -18 -14 -33 0 -16 -9 -36 -20
-46 -12 -10 -20 -29 -20 -48 0 -16 -9 -51 -19 -77 -11 -26 -22 -83 -26 -127
-8 -103 -14 -151 -21 -197 -3 -21 -3 -46 2 -55 4 -10 8 -25 9 -33 9 -132 20
-212 36 -247 10 -23 19 -54 19 -68 0 -14 9 -43 19 -63 11 -20 32 -63 48 -94
15 -32 35 -70 43 -85 22 -39 110 -156 124 -165 6 -4 11 -11 11 -15 0 -12 92
-103 103 -103 6 0 14 -9 17 -20 3 -11 12 -20 18 -20 7 0 18 -9 25 -20 7 -11
19 -20 27 -20 8 0 23 -9 32 -20 10 -11 22 -20 29 -20 6 0 19 -9 28 -19 10 -11
31 -23 47 -26 16 -4 29 -11 29 -16 0 -5 12 -12 28 -15 15 -4 43 -15 62 -24 99
-49 127 -60 152 -60 16 0 55 -9 88 -21 56 -19 78 -20 283 -17 186 3 227 7 252
21 17 9 46 17 65 17 19 0 52 9 73 20 20 11 46 20 58 20 11 0 32 9 46 20 14 11
33 20 42 20 9 0 24 9 34 20 9 11 26 20 36 20 11 0 23 5 27 11 5 9 -6 10 -41 7
-26 -3 -51 -12 -55 -18 -5 -9 -43 -14 -112 -17 -72 -3 -115 -10 -143 -22 -23
-11 -77 -21 -129 -25 -48 -3 -94 -10 -101 -14 -8 -4 -49 -4 -92 0 -43 3 -116
9 -163 13 -47 3 -105 15 -130 25 -25 10 -61 21 -81 25 -21 3 -42 12 -49 20 -7
8 -20 15 -30 15 -9 0 -29 9 -43 20 -14 11 -31 20 -38 20 -11 0 -131 75 -169
106 -45 37 -210 205 -210 214 0 5 -8 18 -17 28 -26 27 -41 52 -60 95 -9 20
-20 37 -24 37 -4 0 -13 17 -20 38 -6 20 -18 46 -25 57 -8 11 -14 29 -14 40 0
11 -6 29 -14 40 -16 24 -24 57 -32 127 -3 29 -11 59 -17 67 -20 24 -15 304 6
373 9 31 17 69 17 85 1 15 9 46 20 68 11 22 19 50 20 61 0 12 9 33 20 47 11
14 20 32 20 40 0 8 9 26 20 40 11 14 20 29 20 35 0 5 9 17 20 27 11 10 20 24
20 32 0 7 9 21 20 30 11 10 20 21 20 26 0 5 17 26 38 47 20 21 49 51 63 67 14
15 50 52 80 80 30 29 63 65 74 79 11 15 41 50 67 79 41 44 52 68 29 64 -3 -1
-15 -3 -26 -6z"/>
<path d="M1505 2429 c-22 -10 -51 -19 -63 -19 -13 0 -35 -9 -49 -20 -14 -11
-31 -20 -38 -20 -7 0 -43 -21 -81 -46 -70 -47 -263 -230 -264 -250 0 -6 -9
-19 -20 -29 -11 -10 -20 -26 -20 -35 0 -9 -9 -25 -20 -35 -11 -10 -20 -26 -20
-35 0 -10 -9 -28 -19 -42 -11 -13 -22 -44 -24 -67 -2 -24 -10 -46 -16 -51 -20
-12 -29 -116 -26 -296 2 -148 6 -176 24 -217 11 -25 21 -53 21 -61 0 -9 9 -33
20 -53 11 -21 20 -45 20 -54 0 -9 9 -24 20 -34 11 -10 20 -22 20 -27 0 -20 62
-97 139 -173 110 -107 119 -115 134 -115 8 0 21 -8 30 -17 9 -10 37 -29 64
-42 26 -13 64 -33 84 -43 20 -10 46 -18 57 -18 11 0 41 -9 67 -20 40 -17 69
-20 211 -20 108 0 163 3 159 10 -3 5 -27 10 -53 10 -28 0 -62 8 -85 20 -27 15
-56 20 -112 20 -56 0 -85 5 -112 20 -21 11 -51 20 -66 20 -16 0 -40 9 -54 20
-14 11 -36 20 -50 20 -13 0 -26 6 -29 14 -3 8 -19 18 -35 21 -17 4 -35 15 -42
26 -6 10 -17 19 -23 19 -37 0 -264 264 -264 306 0 10 -7 25 -16 35 -9 10 -20
37 -25 61 -6 23 -15 45 -21 49 -5 4 -11 22 -13 40 -2 19 -7 63 -11 99 -14 108
2 345 25 374 5 6 14 35 21 64 6 28 16 55 21 58 5 3 16 20 25 37 8 18 22 45 31
61 25 46 235 251 280 275 23 11 44 25 48 31 3 5 15 10 25 10 11 0 34 9 52 20
18 11 43 20 56 20 12 0 25 6 28 14 3 8 20 18 37 22 18 3 43 15 56 25 13 11 30
19 37 19 7 0 16 5 19 10 11 18 -117 10 -160 -11z"/>
</g>
</svg>
